<svg xmlns="http://www.w3.org/2000/svg" width="64" height="64" viewBox="0 0 64 64">
  <circle cx="32" cy="32" r="30" fill="#0078D4"/>
  <path fill="#FFF" d="M32 4a28 28 0 1 0 28 28A28.032 28.032 0 0 0 32 4zm0 4c4.055 0 7.875 3.75 10.311 9.74C37.801 20.31 34.963 20 32 20s-5.801.31-10.311 9.74C24.125 11.75 27.945 8 32 8zm0 48c-4.055 0-7.875-3.75-10.311-9.74C26.199 43.69 29.037 44 32 44s5.801-.31 10.311-9.74C39.875 52.25 36.055 56 32 56zm0-44c-2.768 0-5.18 2.516-6.803 6.606C27.374 22.428 29.619 24 32 24s4.626-1.572 6.803-5.394C37.18 14.516 34.768 12 32 12zm0 40c2.768 0 5.18-2.516 6.803-6.606C36.626 41.572 34.381 40 32 40s-4.626 1.572-6.803 5.394C26.82 49.484 29.232 52 32 52zm0-28c-2.761 0-5.197-1.841-7.37-4.83C23.943 21.734 22 25.602 22 30c0 1.174.07 2.33.21 3.474A14.028 14.028 0 0 1 32 26a14.028 14.028 0 0 1 9.79 7.474C41.93 32.33 42 31.174 42 30c0-4.398-1.943-8.266-2.63-10.83C37.197 22.159 34.761 24 32 24z"/>
</svg>
